<svg width="15" height="15" viewBox="0 0 15 15" fill="none" xmlns="http://www.w3.org/2000/svg">
<path d="M8.74189 7.26553C8.76498 7.26555 8.78756 7.25875 8.80679 7.24598C8.82603 7.23322 8.84107 7.21505 8.85002 7.19377C8.85897 7.17249 8.86143 7.14904 8.8571 7.12636C8.85277 7.10369 8.84184 7.0828 8.82568 7.06631L6.52881 4.73076C6.51249 4.71419 6.4916 4.70285 6.46881 4.69818C6.44602 4.69352 6.42236 4.69574 6.40084 4.70457C6.37931 4.7134 6.36091 4.72843 6.34796 4.74776C6.33501 4.76708 6.32811 4.78982 6.32813 4.81309V6.91396C6.32813 7.0072 6.36516 7.09663 6.4311 7.16256C6.49703 7.22849 6.58645 7.26553 6.67969 7.26553H8.74189Z" fill="white"/>
<path d="M5.77148 7.82217C5.65115 7.70345 5.55554 7.56207 5.49017 7.40618C5.4248 7.2503 5.39096 7.083 5.39062 6.91396V4.21865H3.28125C2.78442 4.22012 2.30836 4.41814 1.95705 4.76945C1.60573 5.12076 1.40772 5.59682 1.40625 6.09365V12.6562C1.40625 13.1534 1.60379 13.6303 1.95542 13.982C2.30706 14.3336 2.78397 14.5312 3.28125 14.5312H7.5C7.99728 14.5312 8.47419 14.3336 8.82582 13.982C9.17746 13.6303 9.375 13.1534 9.375 12.6562V8.20303H6.67969C6.51064 8.20279 6.34331 8.169 6.18741 8.10362C6.03152 8.03824 5.89014 7.94258 5.77148 7.82217ZM10.8984 3.51553H12.9606C12.9837 3.51555 13.0063 3.50875 13.0255 3.49598C13.0448 3.48322 13.0598 3.46505 13.0688 3.44377C13.0777 3.42249 13.0802 3.39904 13.0759 3.37636C13.0715 3.35369 13.0606 3.33279 13.0444 3.31631L10.7476 0.980761C10.7312 0.964187 10.7104 0.952845 10.6876 0.948181C10.6648 0.943516 10.6411 0.94574 10.6196 0.954569C10.5981 0.963397 10.5797 0.978431 10.5667 0.997756C10.5538 1.01708 10.5469 1.03982 10.5469 1.06309V3.16396C10.5469 3.2572 10.5839 3.34663 10.6498 3.41256C10.7158 3.47849 10.8052 3.51553 10.8984 3.51553Z" fill="white"/>
<path d="M11.2109 3.98438C10.8699 3.98177 10.5435 3.84512 10.3023 3.60394C10.0611 3.36275 9.92448 3.03639 9.92187 2.69531V0H6.75781C6.29178 0.000542757 5.84499 0.185915 5.51545 0.515451C5.18591 0.844987 5.00054 1.29178 5 1.75781V2.8125H6.23398C6.39149 2.81313 6.54732 2.84487 6.69252 2.90591C6.83772 2.96695 6.96943 3.05607 7.08008 3.16816L10.2781 6.42012C10.5012 6.64649 10.6258 6.95189 10.6247 7.26973V11.25H12.1789C13.1313 11.25 13.906 10.4613 13.906 9.49219V3.98438H11.2109Z" fill="white"/>
</svg>
