<svg width="14" height="15" viewBox="0 0 14 15" fill="none" xmlns="http://www.w3.org/2000/svg">
<path d="M3.73333 6.5625H6.53333V15H3.73333V6.5625ZM4.66667 14.0625H5.6V7.5H4.66667V14.0625ZM7.46667 8.4375H10.2667V15H7.46667V8.4375ZM8.4 14.0625H9.33333V9.375H8.4V14.0625ZM0 10.3125H2.8V15H0V10.3125ZM0.933333 14.0625H1.86667V11.25H0.933333V14.0625ZM11.2 4.6875H14V15H11.2V4.6875ZM12.1333 14.0625H13.0667V5.625H12.1333V14.0625ZM10.1281 4.54834C10.2205 4.74854 10.2667 4.95117 10.2667 5.15625C10.2667 5.35156 10.2302 5.53467 10.1573 5.70557C10.0844 5.87646 9.98472 6.02539 9.85833 6.15234C9.73194 6.2793 9.58368 6.37939 9.41354 6.45264C9.2434 6.52588 9.06111 6.5625 8.86667 6.5625C8.67222 6.5625 8.48993 6.52588 8.31979 6.45264C8.14965 6.37939 8.00139 6.2793 7.875 6.15234C7.74861 6.02539 7.64896 5.87646 7.57604 5.70557C7.50313 5.53467 7.46667 5.35156 7.46667 5.15625V5.06836C7.46667 5.03906 7.4691 5.00977 7.47396 4.98047L6.10313 4.29199C5.97674 4.41895 5.82847 4.5166 5.65833 4.58496C5.48819 4.65332 5.31319 4.6875 5.13333 4.6875C4.92917 4.6875 4.72743 4.64111 4.52812 4.54834L2.66146 6.42334C2.75382 6.62354 2.8 6.82617 2.8 7.03125C2.8 7.22656 2.76354 7.40967 2.69062 7.58057C2.61771 7.75146 2.51806 7.90039 2.39167 8.02734C2.26528 8.1543 2.11701 8.25439 1.94687 8.32764C1.77674 8.40088 1.59444 8.4375 1.4 8.4375C1.20556 8.4375 1.02326 8.40088 0.853125 8.32764C0.682986 8.25439 0.534722 8.1543 0.408333 8.02734C0.281944 7.90039 0.182292 7.75146 0.109375 7.58057C0.0364583 7.40967 0 7.22656 0 7.03125C0 6.83594 0.0364583 6.65283 0.109375 6.48193C0.182292 6.31104 0.281944 6.16211 0.408333 6.03516C0.534722 5.9082 0.682986 5.80811 0.853125 5.73486C1.02326 5.66162 1.20556 5.625 1.4 5.625C1.60417 5.625 1.8059 5.67139 2.00521 5.76416L3.87188 3.88916C3.77951 3.68896 3.73333 3.48633 3.73333 3.28125C3.73333 3.08594 3.76979 2.90283 3.84271 2.73193C3.91563 2.56104 4.01528 2.41211 4.14167 2.28516C4.26806 2.1582 4.41632 2.05811 4.58646 1.98486C4.7566 1.91162 4.93889 1.875 5.13333 1.875C5.32778 1.875 5.51007 1.91162 5.68021 1.98486C5.85035 2.05811 5.99861 2.1582 6.125 2.28516C6.25139 2.41211 6.35104 2.56104 6.42396 2.73193C6.49687 2.90283 6.53333 3.08594 6.53333 3.28125V3.36914C6.53333 3.39844 6.5309 3.42773 6.52604 3.45703L7.89687 4.14551C8.02326 4.01855 8.17153 3.9209 8.34167 3.85254C8.51181 3.78418 8.68681 3.75 8.86667 3.75C9.07083 3.75 9.27257 3.79639 9.47188 3.88916L11.3385 2.01416C11.2462 1.81396 11.2 1.61133 11.2 1.40625C11.2 1.21094 11.2365 1.02783 11.3094 0.856934C11.3823 0.686035 11.4819 0.537109 11.6083 0.410156C11.7347 0.283203 11.883 0.183105 12.0531 0.109863C12.2233 0.0366211 12.4056 0 12.6 0C12.7944 0 12.9767 0.0366211 13.1469 0.109863C13.317 0.183105 13.4653 0.283203 13.5917 0.410156C13.7181 0.537109 13.8177 0.686035 13.8906 0.856934C13.9635 1.02783 14 1.21094 14 1.40625C14 1.60156 13.9635 1.78467 13.8906 1.95557C13.8177 2.12646 13.7181 2.27539 13.5917 2.40234C13.4653 2.5293 13.317 2.62939 13.1469 2.70264C12.9767 2.77588 12.7944 2.8125 12.6 2.8125C12.3958 2.8125 12.1941 2.76611 11.9948 2.67334L10.1281 4.54834ZM1.4 7.5C1.52639 7.5 1.63576 7.45361 1.72812 7.36084C1.82049 7.26807 1.86667 7.1582 1.86667 7.03125C1.86667 6.9043 1.82049 6.79443 1.72812 6.70166C1.63576 6.60889 1.52639 6.5625 1.4 6.5625C1.27361 6.5625 1.16424 6.60889 1.07187 6.70166C0.979514 6.79443 0.933333 6.9043 0.933333 7.03125C0.933333 7.1582 0.979514 7.26807 1.07187 7.36084C1.16424 7.45361 1.27361 7.5 1.4 7.5ZM12.6 0.9375C12.4736 0.9375 12.3642 0.983887 12.2719 1.07666C12.1795 1.16943 12.1333 1.2793 12.1333 1.40625C12.1333 1.5332 12.1795 1.64307 12.2719 1.73584C12.3642 1.82861 12.4736 1.875 12.6 1.875C12.7264 1.875 12.8358 1.82861 12.9281 1.73584C13.0205 1.64307 13.0667 1.5332 13.0667 1.40625C13.0667 1.2793 13.0205 1.16943 12.9281 1.07666C12.8358 0.983887 12.7264 0.9375 12.6 0.9375ZM5.13333 3.75C5.25972 3.75 5.3691 3.70361 5.46146 3.61084C5.55382 3.51807 5.6 3.4082 5.6 3.28125C5.6 3.1543 5.55382 3.04443 5.46146 2.95166C5.3691 2.85889 5.25972 2.8125 5.13333 2.8125C5.00694 2.8125 4.89757 2.85889 4.80521 2.95166C4.71285 3.04443 4.66667 3.1543 4.66667 3.28125C4.66667 3.4082 4.71285 3.51807 4.80521 3.61084C4.89757 3.70361 5.00694 3.75 5.13333 3.75ZM8.86667 5.625C8.99306 5.625 9.10243 5.57861 9.19479 5.48584C9.28715 5.39307 9.33333 5.2832 9.33333 5.15625C9.33333 5.0293 9.28715 4.91943 9.19479 4.82666C9.10243 4.73389 8.99306 4.6875 8.86667 4.6875C8.74028 4.6875 8.6309 4.73389 8.53854 4.82666C8.44618 4.91943 8.4 5.0293 8.4 5.15625C8.4 5.2832 8.44618 5.39307 8.53854 5.48584C8.6309 5.57861 8.74028 5.625 8.86667 5.625Z" fill="white"/>
</svg>
