<svg width="16" height="10" viewBox="0 0 16 10" fill="none" xmlns="http://www.w3.org/2000/svg">
<path d="M8.57107 1.84387C8.57107 1.63454 8.65203 1.43378 8.79616 1.28576C8.94028 1.13773 9.13575 1.05458 9.33958 1.05458H15.2315C15.4353 1.05458 15.6308 1.13773 15.7749 1.28576C15.919 1.43378 16 1.63454 16 1.84387C16 2.05321 15.919 2.25397 15.7749 2.40199C15.6308 2.55001 15.4353 2.63317 15.2315 2.63317H9.33958C9.13575 2.63317 8.94028 2.55001 8.79616 2.40199C8.65203 2.25397 8.57107 2.05321 8.57107 1.84387ZM15.2315 4.21176H9.33958C9.13575 4.21176 8.94028 4.29492 8.79616 4.44294C8.65203 4.59096 8.57107 4.79172 8.57107 5.00105C8.57107 5.21039 8.65203 5.41115 8.79616 5.55917C8.94028 5.70719 9.13575 5.79035 9.33958 5.79035H15.2315C15.4353 5.79035 15.6308 5.70719 15.7749 5.55917C15.919 5.41115 16 5.21039 16 5.00105C16 4.79172 15.919 4.59096 15.7749 4.44294C15.6308 4.29492 15.4353 4.21176 15.2315 4.21176ZM15.2315 7.36894H10.8766C10.6728 7.36894 10.4773 7.4521 10.3332 7.60012C10.1891 7.74814 10.1081 7.9489 10.1081 8.15824C10.1081 8.36757 10.1891 8.56833 10.3332 8.71635C10.4773 8.86437 10.6728 8.94753 10.8766 8.94753H15.2315C15.4353 8.94753 15.6308 8.86437 15.7749 8.71635C15.919 8.56833 16 8.36757 16 8.15824C16 7.9489 15.919 7.74814 15.7749 7.60012C15.6308 7.4521 15.4353 7.36894 15.2315 7.36894ZM9.44205 9.01331C9.468 9.11352 9.4743 9.21803 9.4606 9.32076C9.44689 9.4235 9.41344 9.52241 9.3622 9.61175C9.31096 9.7011 9.24294 9.7791 9.1621 9.84122C9.08125 9.90334 8.9892 9.94834 8.89128 9.97362C8.82885 9.99205 8.76411 10.0009 8.69915 9.99992C8.52898 9.99965 8.36372 9.94137 8.22927 9.83424C8.09482 9.72711 7.9988 9.57717 7.95626 9.40795C7.76934 8.675 7.35118 8.02633 6.76718 7.56339C6.18317 7.10045 5.46624 6.84935 4.72851 6.84935C3.99079 6.84935 3.27386 7.10045 2.68985 7.56339C2.10584 8.02633 1.68768 8.675 1.50077 9.40795C1.44114 9.60022 1.31208 9.76172 1.1401 9.85929C0.968127 9.95685 0.766301 9.98307 0.576091 9.93254C0.385882 9.88202 0.221735 9.7586 0.117378 9.58764C0.0130216 9.41667 -0.0236197 9.21115 0.0149829 9.01331C0.180692 8.34846 0.478431 7.72598 0.889509 7.18494C1.30059 6.64389 1.81613 6.19597 2.40377 5.86928C1.92958 5.39447 1.604 4.78524 1.46862 4.11944C1.33325 3.45364 1.39423 2.7615 1.64377 2.13147C1.89332 1.50144 2.3201 0.962135 2.86957 0.582464C3.41905 0.202792 4.06626 0 4.72851 0C5.39077 0 6.03798 0.202792 6.58746 0.582464C7.13693 0.962135 7.56371 1.50144 7.81325 2.13147C8.0628 2.7615 8.12378 3.45364 7.98841 4.11944C7.85303 4.78524 7.52745 5.39447 7.05326 5.86928C7.6409 6.19597 8.15644 6.64389 8.56752 7.18494C8.9786 7.72598 9.27634 8.34846 9.44205 9.01331ZM4.72851 5.26415C5.08317 5.26415 5.42987 5.15614 5.72476 4.95377C6.01965 4.7514 6.24948 4.46377 6.38521 4.12725C6.52093 3.79072 6.55644 3.42042 6.48725 3.06317C6.41806 2.70591 6.24727 2.37776 5.99649 2.12019C5.74571 1.86263 5.42619 1.68722 5.07835 1.61616C4.7305 1.5451 4.36995 1.58157 4.04229 1.72096C3.71463 1.86036 3.43457 2.09641 3.23753 2.39927C3.04049 2.70214 2.93532 3.05821 2.93532 3.42246C2.93701 3.91038 3.12648 4.37781 3.4624 4.72282C3.79832 5.06783 4.25345 5.26242 4.72851 5.26415Z" fill="white"/>
</svg>
