<svg width="19" height="18" viewBox="0 0 19 18" fill="none" xmlns="http://www.w3.org/2000/svg">
<path d="M1 14L4.89474 1H18.25L14.7961 14H1Z" fill="white" stroke="black"/>
<path d="M11.655 17.18C10.925 17.18 10.2 17.085 9.48 16.895C8.77 16.695 8.16 16.415 7.65 16.055L8.61 14.195C9.01 14.485 9.47 14.715 9.99 14.885C10.52 15.055 11.055 15.14 11.595 15.14C12.205 15.14 12.685 15.02 13.035 14.78C13.385 14.54 13.56 14.205 13.56 13.775C13.56 13.505 13.49 13.265 13.35 13.055C13.21 12.845 12.96 12.685 12.6 12.575C12.25 12.465 11.755 12.41 11.115 12.41H8.43L8.97 6.5H15.375V8.45H9.84L11.1 7.34L10.725 11.555L9.465 10.445H11.685C12.725 10.445 13.56 10.59 14.19 10.88C14.83 11.16 15.295 11.545 15.585 12.035C15.875 12.525 16.02 13.08 16.02 13.7C16.02 14.32 15.865 14.895 15.555 15.425C15.245 15.945 14.765 16.37 14.115 16.7C13.475 17.02 12.655 17.18 11.655 17.18Z" fill="white"/>
</svg>
