<svg width="512.595" height="512.595" xmlns="http://www.w3.org/2000/svg" xml:space="preserve" version="1.1">

 <g>
  <title>Layer 1</title>
  <g id="svg_1">
   <path id="svg_2" data-original="#d4d9ff" d="m449.097,94.395c0,-36.36 -19.071,-68.26 -47.752,-86.261l0,69.485a18.463,18.463 0 0 1 -9.014,15.862l-35.566,21.189a18.465,18.465 0 0 1 -18.901,0l-35.566,-21.19a18.465,18.465 0 0 1 -9.014,-15.862l0,-69.484c-28.368,17.805 -47.335,49.207 -47.745,85.073c-0.506,44.235 27.715,82.506 67.227,96.889l0,215.189c0,19.08 15.468,34.547 34.548,34.547c19.081,0 34.548,-15.467 34.548,-34.547l0,-215.132c39.207,-14.146 67.235,-51.677 67.235,-95.758z" fill="#d4d9ff"/>
   <path id="svg_3" data-original="#c7cdff" d="m401.345,8.134l0,47.24c4.994,12.017 7.752,25.196 7.752,39.021c0,41.793 -25.193,77.698 -61.22,93.369a9.992,9.992 0 0 0 -6.013,9.162l0,208.359c0,11.627 -5.744,21.912 -14.548,28.173a34.39,34.39 0 0 0 20,6.374c19.081,0 34.548,-15.468 34.548,-34.548l0,-215.13c39.206,-14.146 67.234,-51.677 67.234,-95.759c-0.001,-36.36 -19.072,-68.26 -47.753,-86.261z" fill="#c7cdff"/>
   <path id="svg_4" data-original="#fff5b5" d="m172.86,396.66l88.589,0l0,107.792l-88.589,0l0,-107.792z" fill="#fff5b5"/>
   <path id="svg_5" data-original="#ffef8f" d="m221.449,396.66l40,0l0,107.792l-40,0l0,-107.792z" fill="#ffef8f"/>
   <path id="svg_6" data-original="#a6f5cf" d="m350.038,261.726l88.589,0l0,242.726l-88.589,0l0,-242.726z" fill="#a6f5cf"/>
   <path id="svg_7" data-original="#8aedbd" d="m398.627,261.726l40,0l0,242.726l-40,0l0,-242.726z" fill="#8aedbd"/>
   <path id="svg_8" data-original="#ff8ccc" d="m261.449,331.656l88.589,0l0,172.796l-88.589,0l0,-172.796z" fill="#ff8ccc"/>
   <path id="svg_9" data-original="#ff78c2" d="m310.038,331.656l40,0l0,172.796l-40,0l0,-172.796z" fill="#ff78c2"/>
   <path id="svg_10" data-original="#7776d0" d="m126.863,470.04l51.257,0c9.414,0 17.046,-7.632 17.046,-17.046s-7.632,-17.046 -17.046,-17.046l-51.257,0c-9.414,0 -17.046,7.632 -17.046,17.046s7.632,17.046 17.046,17.046z" fill="#7776d0"/>
   <path id="svg_11" data-original="#6967bf" d="m178.12,435.947l-40,0c9.414,0 17.046,7.632 17.046,17.046s-7.632,17.046 -17.046,17.046l40,0c9.414,0 17.046,-7.632 17.046,-17.046s-7.632,-17.046 -17.046,-17.046z" fill="#6967bf"/>
   <path id="svg_12" data-original="#d4d9ff" d="m126.863,504.128l51.257,0c9.414,0 17.046,-7.632 17.046,-17.046s-7.632,-17.046 -17.046,-17.046l-51.257,0c-9.414,0 -17.046,7.632 -17.046,17.046s7.632,17.046 17.046,17.046z" fill="#d4d9ff"/>
   <path id="svg_13" data-original="#c7cdff" d="m178.12,470.035l-40,0c9.414,0 17.046,7.632 17.046,17.046c0,9.415 -7.632,17.047 -17.046,17.047l40,0c9.414,0 17.046,-7.632 17.046,-17.047c0,-9.414 -7.632,-17.046 -17.046,-17.046z" fill="#c7cdff"/>
   <path id="svg_14" data-original="#ffd54d" d="m32.009,274.507c0,-67.532 55.565,-122.086 123.472,-120.442c63.117,1.528 114.862,52.404 117.394,115.486c1.324,32.993 -10.644,63.169 -30.967,85.657c-7.194,7.96 -11.061,18.355 -10.7,29.085c0,28.521 -23.122,51.642 -51.644,51.642l-54.146,0c-28.522,0 -51.644,-23.121 -51.644,-51.642c0.238,-10.484 -3.248,-20.906 -10.363,-28.715c-19.5,-21.399 -31.402,-49.838 -31.402,-81.071z" fill="#ffd54d"/>
   <path id="svg_15" data-original="#ffc919" d="m272.875,269.552c-2.532,-63.082 -54.277,-113.958 -117.394,-115.486a121.61,121.61 0 0 0 -23.032,1.624c55.184,9.293 98.125,56.538 100.426,113.863c1.324,32.993 -10.644,63.169 -30.967,85.657c-7.194,7.96 -11.061,18.355 -10.7,29.085c0,28.521 -23.122,51.642 -51.644,51.642l40,0c28.522,0 51.644,-23.121 51.644,-51.642c-0.361,-10.73 3.506,-21.125 10.7,-29.085c20.323,-22.489 32.291,-52.665 30.967,-85.658z" fill="#ffc919"/>
   <path id="svg_16" data-original="#000000" fill="#000000" d="m438.627,254.226l-49.264,0l0,-58.944c40.428,-16.863 67.233,-56.751 67.233,-100.888c0,-37.845 -19.164,-72.467 -51.265,-92.613c-5.196,-3.261 -11.487,0.995 -11.487,6.353l0,69.485c0,3.843 -2.051,7.451 -5.353,9.418l-35.565,21.188a10.953,10.953 0 0 1 -11.224,0l-35.566,-21.188a11.014,11.014 0 0 1 -5.353,-9.418l0,-69.485c0,-5.356 -6.291,-9.615 -11.487,-6.353c-31.669,19.876 -50.83,54.022 -51.257,91.34c-0.51,44.548 26.301,84.922 67.227,102.091l0,128.944l-34.778,0c7.223,-17.132 10.648,-35.795 9.881,-54.905c-2.696,-67.166 -57.474,-121.056 -124.707,-122.684c-25.433,-0.615 -50.159,6.21 -71.532,19.74c-8.194,5.185 -0.169,17.866 8.022,12.674c18.861,-11.939 40.697,-17.966 63.146,-17.418c59.348,1.437 107.702,49.003 110.082,108.289c1.194,29.758 -9.118,58.285 -29.037,80.328c-8.541,9.45 -13.025,21.602 -12.635,34.229c-0.063,24.287 -19.841,44.026 -44.144,44.026l-19.573,0l0,-109.816l29.534,0c4.142,0 7.5,-3.357 7.5,-7.5s-3.358,-7.5 -7.5,-7.5l-74.068,0c-4.142,0 -7.5,3.357 -7.5,7.5s3.358,7.5 7.5,7.5l29.534,0l0,109.816l-19.573,0c-24.316,0 -44.103,-19.759 -44.144,-44.064c0.269,-12.812 -4.104,-24.827 -12.32,-33.844c-18.989,-20.838 -29.446,-47.836 -29.446,-76.021c0,-26.043 8.612,-50.512 24.904,-70.762c6.079,-7.555 -5.611,-16.96 -11.687,-9.402c-18.196,22.616 -28.217,51.086 -28.217,80.164c0,31.931 11.847,62.517 33.359,86.123c5.626,6.176 8.613,14.52 8.409,23.494l-0.002,0.17c0,25.795 16.601,47.786 39.681,55.852c-5.748,9.32 -4.329,22.037 3.26,29.892c-14.623,15.136 -3.436,41.915 17.648,41.915l311.764,0c4.143,0 7.5,-3.357 7.5,-7.5l0,-242.726a7.5,7.5 0 0 0 -7.5,-7.5zm-123.295,-71.178c-37.717,-13.729 -62.751,-49.799 -62.293,-89.755c0.313,-27.394 12.332,-52.809 32.745,-70.345l0,54.671c0,9.1 4.856,17.646 12.675,22.305l35.565,21.188a25.936,25.936 0 0 0 26.58,0.001l35.565,-21.188c7.818,-4.658 12.675,-13.204 12.675,-22.305l0,-54.679c20.724,17.782 32.752,43.607 32.752,71.453c0,39.615 -25.028,75.263 -62.279,88.704a7.5,7.5 0 0 0 -4.954,7.055l0,64.073l-24.325,0a7.499,7.499 0 0 0 -7.5,7.5l0,62.43l-22.271,0l0,-134.06a7.5,7.5 0 0 0 -4.935,-7.048zm-67.859,177.189a130.17,130.17 0 0 0 6.477,-7.752l0,36.675l-15.44,0c0.89,-10.876 1.034,-20.149 8.963,-28.923zm-12.197,43.923l18.674,0l0,92.792l-53.356,0c3.916,-8.882 1.922,-19.93 -4.826,-26.915c7.584,-7.85 9.001,-20.585 3.26,-29.892c16.847,-5.887 30.242,-19.194 36.248,-35.985zm-57.156,58.375l-51.257,0c-12.269,0 -12.323,-19.088 0,-19.088l51.257,0c12.323,0 12.269,19.088 0,19.088zm-60.803,24.547c0,-5.22 4.336,-9.542 9.546,-9.542l51.257,0c12.268,0 12.323,19.088 0,19.088l-51.257,0c-5.263,0 -9.546,-4.282 -9.546,-9.546zm313.81,9.87l-73.589,0l0,-32.581c0,-9.697 -15,-9.697 -15,0l0,32.581l-73.589,0l0,-157.796l73.589,0l0,85.261c0,9.697 15,9.697 15,0l0,-155.19l73.589,0l0,227.725z"/>
   <path id="svg_17" data-original="#000000" fill="#000000" d="m152.492,135.555c9.652,0 9.668,-15 0,-15c-9.652,0 -9.668,15 0,15zm-127.876,205.382c-9.652,0 -9.668,15 0,15c9.652,0 9.667,-15 0,-15zm-17.371,-48.045c-9.652,0 -9.668,15 0,15c9.652,0 9.668,-15 0,-15zm0.11,-51.089c-9.652,0 -9.668,15 0,15c9.651,0 9.667,-15 0,-15zm17.577,-32.97c9.652,0 9.668,-15 0,-15c-9.652,0 -9.668,15 0,15zm32.925,-39.066c9.652,0 9.668,-15 0,-15c-9.652,0 -9.668,15 0,15zm42.681,-24.852c9.652,0 9.668,-15 0,-15c-9.652,0 -9.668,15 0,15zm105.355,0c9.652,0 9.668,-15 0,-15c-9.652,0 -9.668,15 0,15z"/>
   <circle id="svg_18" data-original="#000000" fill="#000000" r="7.5" cy="504.452" cx="479.26"/>
   <circle id="svg_19" data-original="#000000" fill="#000000" r="7.5" cy="424.452" cx="479.26"/>
   <circle id="svg_20" data-original="#000000" fill="#000000" r="7.5" cy="464.452" cx="479.26"/>
   <circle id="svg_21" data-original="#000000" fill="#000000" r="7.5" cy="384.452" cx="479.26"/>
   <path id="svg_22" data-original="#000000" fill="#000000" d="m510.248,185.555l-25.802,-24.577c-2.859,-2.737 -7.519,-2.737 -10.377,0l-25.802,24.577c-7.022,6.688 3.324,17.55 10.346,10.861l13.146,-12.521l0,158.592c0,4.143 3.357,7.5 7.5,7.5s7.5,-3.357 7.5,-7.5l0,-158.591l13.146,12.521c6.983,6.652 17.388,-4.151 10.343,-10.862z"/>
  </g>
 </g>
</svg>